# Blender v2.79 (sub 0) OBJ File: ''
# www.blender.org
o Cube_Cube.004
v 0.000000 1.000000 1.000000
v 0.000000 0.000000 0.000000
v 0.000000 -0.000000 1.000000
v 0.000000 1.000000 0.000000
v 1.000000 0.000000 0.000000
v 1.000000 1.000000 0.000000
v 1.000000 -0.000000 1.000000
v 1.000000 1.000000 1.000000
v 0.000000 1.000000 0.000000
v 0.000000 1.000000 0.000000
v 1.000000 1.000000 0.000000
v 1.000000 1.000000 0.000000
v 0.000000 -0.000000 1.000000
v 0.000000 -0.000000 1.000000
v 1.000000 -0.000000 1.000000
v 1.000000 -0.000000 1.000000
v 0.000000 1.000000 1.000000
v 0.000000 1.000000 1.000000
v 1.000000 1.000000 1.000000
v 1.000000 1.000000 1.000000
v 1.000000 0.000000 0.000000
v 1.000000 0.000000 0.000000
v 0.000000 0.000000 0.000000
v 0.000000 0.000000 0.000000
vn -1.0000 0.0000 0.0000
vn 0.0000 0.0000 -1.0000
vn 1.0000 0.0000 0.0000
vn 0.0000 -0.0000 1.0000
vn 0.0000 -1.0000 -0.0000
vn 0.0000 1.0000 0.0000
s off
f 17//1 24//1 3//1
f 10//2 22//2 23//2
f 12//3 16//3 5//3
f 19//4 14//4 15//4
f 21//5 13//5 2//5
f 9//6 20//6 11//6
f 17//1 4//1 24//1
f 10//2 6//2 22//2
f 12//3 8//3 16//3
f 19//4 18//4 14//4
f 21//5 7//5 13//5
f 9//6 1//6 20//6
